<svg width="40" height="40" viewBox="0 0 40 40" fill="none" xmlns="http://www.w3.org/2000/svg">
<path d="M27.9511 13.7743C26.0474 12.267 23.0358 12.0115 22.9069 12.0023C22.707 11.9858 22.5165 12.0961 22.4343 12.278C22.4268 12.2891 22.3614 12.438 22.2886 12.6696C23.5477 12.8791 25.0946 13.3001 26.4939 14.1548C26.7181 14.2908 26.7872 14.5813 26.6489 14.8019C26.5574 14.9471 26.4023 15.0261 26.2417 15.0261C26.1557 15.0261 26.0679 15.0022 25.9895 14.9544C23.5832 13.4857 20.5791 13.4122 20 13.4122C19.4209 13.4122 16.4149 13.4857 14.0105 14.9544C13.7863 15.0923 13.4912 15.0243 13.3529 14.8037C13.2128 14.5813 13.2819 14.2927 13.5061 14.1548C14.9054 13.3019 16.4523 12.8791 17.7114 12.6714C17.6386 12.438 17.5732 12.2909 17.5676 12.278C17.4835 12.0961 17.2948 11.9821 17.0931 12.0023C16.9642 12.0115 13.9526 12.267 12.0228 13.7945C11.0158 14.7118 9 20.0719 9 24.706C9 24.7887 9.02242 24.8677 9.06352 24.9394C10.4535 27.3438 14.2478 27.9724 15.1128 28C15.1165 28 15.1221 28 15.1277 28C15.2809 28 15.4248 27.9283 15.5144 27.807L16.3888 26.6232C14.0292 26.024 12.8242 25.0056 12.7551 24.9449C12.5571 24.774 12.5384 24.4762 12.714 24.2814C12.8877 24.0865 13.1904 24.0681 13.3884 24.2391C13.4164 24.2648 15.6359 26.1177 20 26.1177C24.3716 26.1177 26.591 24.2575 26.6135 24.2391C26.8115 24.07 27.1123 24.0865 27.2879 24.2832C27.4616 24.478 27.4429 24.774 27.2449 24.9449C27.1758 25.0056 25.9708 26.024 23.6112 26.6232L24.4856 27.807C24.5752 27.9283 24.7191 28 24.8723 28C24.8779 28 24.8835 28 24.8872 28C25.7522 27.9724 29.5465 27.3438 30.9365 24.9394C30.9776 24.8677 31 24.7887 31 24.706C31 20.0719 28.9842 14.7118 27.9511 13.7743ZM16.8913 22.8237C15.9665 22.8237 15.2174 21.9818 15.2174 20.9414C15.2174 19.901 15.9665 19.0591 16.8913 19.0591C17.8161 19.0591 18.5652 19.901 18.5652 20.9414C18.5652 21.9818 17.8161 22.8237 16.8913 22.8237ZM23.1087 22.8237C22.1839 22.8237 21.4348 21.9818 21.4348 20.9414C21.4348 19.901 22.1839 19.0591 23.1087 19.0591C24.0335 19.0591 24.7826 19.901 24.7826 20.9414C24.7826 21.9818 24.0335 22.8237 23.1087 22.8237Z" fill="#F5F8FB"/>
</svg>
