<svg width="41" height="40" viewBox="0 0 41 40" fill="none" xmlns="http://www.w3.org/2000/svg">
<path d="M10.1678 20.0612C10.169 25.0108 13.7462 29.2253 18.6048 30.001V22.9689H16.0678V20.0612H18.6078V17.8476C18.4943 16.7987 18.8504 15.7534 19.5795 14.9951C20.3086 14.2368 21.3352 13.8441 22.3808 13.9236C23.1314 13.9358 23.88 14.0031 24.6208 14.1248V16.599H23.3568C22.9217 16.5416 22.4842 16.6862 22.1676 16.992C21.851 17.2979 21.6896 17.7318 21.7288 18.1716V20.0612H24.4998L24.0568 22.97H21.7288V30.001C26.9833 29.1655 30.6679 24.3371 30.1134 19.0138C29.5588 13.6905 24.9591 9.73591 19.6467 10.0149C14.3342 10.2938 10.1687 14.7087 10.1678 20.0612Z" fill="#F5F8FB"/>
</svg>
