<svg width="41" height="40" viewBox="0 0 41 40" fill="none" xmlns="http://www.w3.org/2000/svg">
<path fill-rule="evenodd" clip-rule="evenodd" d="M16.5277 10.8244C17.5121 10.7791 17.8259 10.769 20.3333 10.769C22.8407 10.769 23.1546 10.78 24.1381 10.8244C25.1216 10.8689 25.7929 11.0258 26.3803 11.2532C26.9954 11.4857 27.5535 11.849 28.015 12.319C28.4849 12.7797 28.8474 13.3369 29.079 13.9528C29.3073 14.5402 29.4634 15.2116 29.5087 16.1934C29.554 17.1794 29.5641 17.4932 29.5641 19.9998C29.5641 22.5072 29.5532 22.8211 29.5087 23.8054C29.4642 24.7872 29.3073 25.4586 29.079 26.046C28.8474 26.662 28.4843 27.2201 28.015 27.6815C27.5535 28.1514 26.9954 28.5139 26.3803 28.7456C25.7929 28.9738 25.1216 29.1299 24.1397 29.1752C23.1546 29.2205 22.8407 29.2306 20.3333 29.2306C17.8259 29.2306 17.5121 29.2197 16.5277 29.1752C15.5459 29.1307 14.8746 28.9738 14.2872 28.7456C13.6711 28.5139 13.113 28.1508 12.6516 27.6815C12.182 27.2205 11.8186 26.6627 11.5867 26.0468C11.3593 25.4594 11.2032 24.7881 11.1579 23.8062C11.1126 22.8202 11.1025 22.5064 11.1025 19.9998C11.1025 17.4924 11.1134 17.1786 11.1579 16.1951C11.2024 15.2116 11.3593 14.5402 11.5867 13.9528C11.8189 13.3369 12.1826 12.7791 12.6525 12.3181C13.1132 11.8486 13.6708 11.4852 14.2863 11.2532C14.8737 11.0258 15.5451 10.8697 16.5269 10.8244H16.5277ZM24.0634 12.486C23.09 12.4415 22.7979 12.4323 20.3333 12.4323C17.8687 12.4323 17.5767 12.4415 16.6032 12.486C15.7028 12.5271 15.2144 12.6773 14.8888 12.804C14.4583 12.9718 14.1504 13.1707 13.8273 13.4938C13.521 13.7917 13.2853 14.1545 13.1375 14.5553C13.0108 14.8809 12.8606 15.3693 12.8195 16.2697C12.775 17.2432 12.7658 17.5352 12.7658 19.9998C12.7658 22.4644 12.775 22.7565 12.8195 23.7299C12.8606 24.6303 13.0108 25.1187 13.1375 25.4443C13.2852 25.8446 13.521 26.2079 13.8273 26.5058C14.1252 26.8121 14.4886 27.0479 14.8888 27.1956C15.2144 27.3223 15.7028 27.4725 16.6032 27.5137C17.5767 27.5581 17.8679 27.5674 20.3333 27.5674C22.7988 27.5674 23.09 27.5581 24.0634 27.5137C24.9638 27.4725 25.4522 27.3223 25.7778 27.1956C26.2083 27.0278 26.5162 26.8289 26.8393 26.5058C27.1456 26.2079 27.3814 25.8446 27.5291 25.4443C27.6558 25.1187 27.806 24.6303 27.8472 23.7299C27.8916 22.7565 27.9009 22.4644 27.9009 19.9998C27.9009 17.5352 27.8916 17.2432 27.8472 16.2697C27.806 15.3693 27.6558 14.8809 27.5291 14.5553C27.3613 14.1248 27.1624 13.8169 26.8393 13.4938C26.5414 13.1876 26.1787 12.9519 25.7778 12.804C25.4522 12.6773 24.9638 12.5271 24.0634 12.486ZM19.1543 22.8454C19.8127 23.1195 20.5459 23.1565 21.2286 22.9501C21.9113 22.7436 22.5012 22.3066 22.8975 21.7136C23.2937 21.1206 23.4718 20.4084 23.4013 19.6986C23.3308 18.9889 23.0161 18.3257 22.5109 17.8222C22.1889 17.5004 21.7995 17.2539 21.3708 17.1006C20.9421 16.9474 20.4847 16.891 20.0316 16.9357C19.5785 16.9804 19.141 17.125 18.7505 17.3591C18.36 17.5932 18.0262 17.9109 17.7733 18.2895C17.5203 18.668 17.3544 19.098 17.2876 19.5483C17.2207 19.9987 17.2546 20.4582 17.3866 20.894C17.5187 21.3297 17.7457 21.7307 18.0514 22.0681C18.3571 22.4055 18.7337 22.671 19.1543 22.8454ZM16.9783 16.6448C17.4189 16.2043 17.942 15.8548 18.5176 15.6163C19.0933 15.3779 19.7102 15.2552 20.3333 15.2552C20.9564 15.2552 21.5734 15.3779 22.149 15.6163C22.7247 15.8548 23.2477 16.2043 23.6883 16.6448C24.1289 17.0854 24.4783 17.6085 24.7168 18.1841C24.9552 18.7598 25.0779 19.3767 25.0779 19.9998C25.0779 20.6229 24.9552 21.2399 24.7168 21.8155C24.4783 22.3912 24.1289 22.9142 23.6883 23.3548C22.7985 24.2446 21.5917 24.7445 20.3333 24.7445C19.075 24.7445 17.8681 24.2446 16.9783 23.3548C16.0886 22.465 15.5887 21.2582 15.5887 19.9998C15.5887 18.7415 16.0886 17.5346 16.9783 16.6448ZM26.1302 15.9618C26.2394 15.8588 26.3268 15.7349 26.3873 15.5976C26.4477 15.4602 26.48 15.3121 26.4822 15.162C26.4844 15.0119 26.4564 14.8629 26.4 14.7238C26.3436 14.5848 26.2598 14.4584 26.1537 14.3523C26.0476 14.2462 25.9212 14.1624 25.7821 14.106C25.6431 14.0496 25.4941 14.0216 25.344 14.0238C25.1939 14.026 25.0458 14.0583 24.9084 14.1187C24.7711 14.1792 24.6472 14.2666 24.5442 14.3758C24.3439 14.5881 24.2343 14.8701 24.2385 15.162C24.2428 15.4539 24.3606 15.7326 24.567 15.939C24.7734 16.1454 25.0521 16.2632 25.344 16.2675C25.6359 16.2717 25.9179 16.1621 26.1302 15.9618Z" fill="#F5F8FB"/>
</svg>
