<svg width="16" height="17" viewBox="0 0 16 17" fill="none" xmlns="http://www.w3.org/2000/svg">
<path fill-rule="evenodd" clip-rule="evenodd" d="M5.46249 2.12628C6.11871 2.09607 6.32794 2.08936 7.99955 2.08936C9.67116 2.08936 9.88039 2.09663 10.5361 2.12628C11.1917 2.15593 11.6393 2.26054 12.0309 2.41215C12.4409 2.56712 12.813 2.80936 13.1207 3.12264C13.434 3.42978 13.6756 3.80124 13.83 4.21187C13.9822 4.60348 14.0863 5.05104 14.1165 5.70558C14.1467 6.36292 14.1534 6.57216 14.1534 8.24321C14.1534 9.91481 14.1461 10.124 14.1165 10.7803C14.0868 11.4348 13.9822 11.8824 13.83 12.274C13.6756 12.6847 13.4336 13.0567 13.1207 13.3643C12.813 13.6776 12.4409 13.9193 12.0309 14.0737C11.6393 14.2259 11.1917 14.3299 10.5372 14.3601C9.88039 14.3903 9.67116 14.3971 7.99955 14.3971C6.32794 14.3971 6.11871 14.3898 5.46249 14.3601C4.80794 14.3305 4.36039 14.2259 3.96878 14.0737C3.55811 13.9193 3.18602 13.6772 2.87843 13.3643C2.56536 13.057 2.32308 12.6851 2.1685 12.2745C2.01689 11.8829 1.91284 11.4354 1.88263 10.7808C1.85242 10.1235 1.8457 9.91426 1.8457 8.24321C1.8457 6.5716 1.85298 6.36237 1.88263 5.7067C1.91228 5.05104 2.01689 4.60348 2.1685 4.21187C2.32331 3.80129 2.56577 3.42939 2.87899 3.12208C3.18615 2.80908 3.55786 2.56681 3.96822 2.41215C4.35983 2.26054 4.80738 2.15649 5.46193 2.12628H5.46249ZM10.4863 3.23397C9.83731 3.20432 9.64263 3.19817 7.99955 3.19817C6.35647 3.19817 6.16179 3.20432 5.51284 3.23397C4.91256 3.26138 4.58696 3.36152 4.3699 3.446C4.08291 3.55789 3.87759 3.69048 3.66221 3.90586C3.45804 4.10449 3.30091 4.3463 3.20235 4.61355C3.11787 4.83062 3.01773 5.15621 2.99032 5.75649C2.96067 6.40544 2.95451 6.60013 2.95451 8.24321C2.95451 9.88628 2.96067 10.081 2.99032 10.7299C3.01773 11.3302 3.11787 11.6558 3.20235 11.8729C3.30081 12.1397 3.45801 12.3819 3.66221 12.5806C3.86081 12.7847 4.10305 12.942 4.3699 13.0404C4.58696 13.1249 4.91256 13.225 5.51284 13.2524C6.16179 13.2821 6.35591 13.2882 7.99955 13.2882C9.64319 13.2882 9.83731 13.2821 10.4863 13.2524C11.0865 13.225 11.4121 13.1249 11.6292 13.0404C11.9162 12.9285 12.1215 12.7959 12.3369 12.5806C12.5411 12.3819 12.6983 12.1397 12.7968 11.8729C12.8812 11.6558 12.9814 11.3302 13.0088 10.7299C13.0384 10.081 13.0446 9.88628 13.0446 8.24321C13.0446 6.60013 13.0384 6.40544 13.0088 5.75649C12.9814 5.15621 12.8812 4.83062 12.7968 4.61355C12.6849 4.32656 12.5523 4.12124 12.3369 3.90586C12.1383 3.7017 11.8964 3.54458 11.6292 3.446C11.4121 3.36152 11.0865 3.26138 10.4863 3.23397ZM7.21354 10.1403C7.65251 10.323 8.1413 10.3477 8.59643 10.21C9.05157 10.0724 9.4448 9.78106 9.70898 9.38572C9.97316 8.99038 10.0919 8.51558 10.0449 8.04242C9.99789 7.56927 9.78808 7.12711 9.4513 6.79146C9.23661 6.5769 8.97701 6.41261 8.69121 6.31042C8.4054 6.20823 8.10049 6.17068 7.79843 6.20047C7.49637 6.23026 7.20467 6.32666 6.94434 6.48272C6.684 6.63878 6.4615 6.85061 6.29287 7.10298C6.12423 7.35535 6.01364 7.64197 5.96907 7.9422C5.9245 8.24244 5.94705 8.54882 6.0351 8.8393C6.12315 9.12977 6.2745 9.39711 6.47827 9.62207C6.68205 9.84703 6.93316 10.024 7.21354 10.1403ZM5.76291 6.00656C6.05663 5.71284 6.40532 5.47985 6.78909 5.32089C7.17285 5.16193 7.58417 5.08011 7.99955 5.08011C8.41493 5.08011 8.82625 5.16193 9.21001 5.32089C9.59378 5.47985 9.94247 5.71284 10.2362 6.00656C10.5299 6.30028 10.7629 6.64898 10.9219 7.03274C11.0808 7.41651 11.1626 7.82782 11.1626 8.24321C11.1626 8.65859 11.0808 9.0699 10.9219 9.45367C10.7629 9.83743 10.5299 10.1861 10.2362 10.4798C9.643 11.073 8.83845 11.4063 7.99955 11.4063C7.16065 11.4063 6.3561 11.073 5.76291 10.4798C5.16971 9.88665 4.83646 9.08211 4.83646 8.24321C4.83646 7.4043 5.16971 6.59976 5.76291 6.00656ZM11.8642 5.55118C11.937 5.48252 11.9952 5.39995 12.0355 5.30836C12.0758 5.21678 12.0973 5.11804 12.0988 5.01799C12.1003 4.91794 12.0816 4.81861 12.044 4.72589C12.0064 4.63317 11.9506 4.54894 11.8798 4.47819C11.8091 4.40744 11.7248 4.3516 11.6321 4.31398C11.5394 4.27637 11.4401 4.25773 11.34 4.25919C11.24 4.26065 11.1412 4.28217 11.0496 4.32247C10.9581 4.36278 10.8755 4.42105 10.8068 4.49383C10.6733 4.63539 10.6002 4.82341 10.603 5.01799C10.6059 5.21257 10.6844 5.39838 10.822 5.53598C10.9596 5.67359 11.1454 5.75214 11.34 5.75498C11.5346 5.75782 11.7226 5.68471 11.8642 5.55118Z" fill="#F5F8FB"/>
</svg>
