<svg width="41" height="40" viewBox="0 0 41 40" fill="none" xmlns="http://www.w3.org/2000/svg">
<path d="M28.0308 10.769H12.2988C11.5452 10.769 10.9359 11.364 10.9359 12.0996V27.8965C10.9359 28.632 11.5452 29.2306 12.2988 29.2306H28.0308C28.7844 29.2306 29.3974 28.632 29.3974 27.9001V12.0996C29.3974 11.364 28.7844 10.769 28.0308 10.769ZM16.413 26.501H13.6726V17.6885H16.413V26.501ZM15.0428 16.4878C14.163 16.4878 13.4527 15.7775 13.4527 14.9013C13.4527 14.0251 14.163 13.3147 15.0428 13.3147C15.919 13.3147 16.6294 14.0251 16.6294 14.9013C16.6294 15.7739 15.919 16.4878 15.0428 16.4878ZM26.6678 26.501H23.931V22.2174C23.931 21.1969 23.913 19.8808 22.5068 19.8808C21.0825 19.8808 20.8661 20.995 20.8661 22.1452V26.501H18.133V17.6885H20.758V18.8928H20.794C21.1582 18.2005 22.0524 17.4686 23.383 17.4686C26.1558 17.4686 26.6678 19.2931 26.6678 21.6657V26.501Z" fill="#F5F8FB"/>
</svg>
