<svg width="41" height="40" viewBox="0 0 41 40" fill="none" xmlns="http://www.w3.org/2000/svg">
<path d="M31.7134 10.4227C31.304 10.1145 30.661 10.0704 29.9962 10.3074H29.9951C29.2958 10.5565 10.202 17.8277 9.42471 18.1247C9.28333 18.1684 8.04862 18.5774 8.1758 19.4885C8.28934 20.3099 9.28169 20.6501 9.40287 20.6893L14.2571 22.165C14.5792 23.1168 15.7664 26.6283 16.029 27.3785C16.1927 27.8462 16.4596 28.4607 16.9274 28.5871C17.3379 28.7277 17.7462 28.5993 18.0104 28.4151L20.9782 25.9712L25.7691 29.2884L25.8832 29.349C26.2085 29.4769 26.5202 29.5409 26.8177 29.5409C27.0475 29.5409 27.268 29.5026 27.4787 29.426C28.1965 29.1643 28.4836 28.5571 28.5136 28.4883L32.0922 11.974C32.3106 11.092 32.0071 10.6432 31.7134 10.4227ZM18.5382 22.7553L16.9007 26.6322L15.2631 21.786L27.8177 13.5475L18.5382 22.7553Z" fill="#F5F8FB"/>
</svg>
