<svg width="40" height="40" viewBox="0 0 40 40" fill="none" xmlns="http://www.w3.org/2000/svg">
<path d="M27.033 10.769H12.9671C11.7552 10.769 10.7693 11.755 10.7693 12.9668V27.0328C10.7693 28.2446 11.7552 29.2306 12.9671 29.2306H27.033C28.2449 29.2306 29.2308 28.2446 29.2308 27.0328V12.9668C29.2308 11.755 28.2449 10.769 27.033 10.769ZM25.2774 18.8231C25.1776 18.8323 25.0765 18.8385 24.9741 18.8385C23.8212 18.8385 22.808 18.2455 22.2185 17.3493C22.2185 19.7005 22.2185 22.3756 22.2185 22.4205C22.2185 24.4904 20.5403 26.1686 18.4704 26.1686C16.4005 26.1686 14.7223 24.4904 14.7223 22.4205C14.7223 20.3506 16.4005 18.6723 18.4704 18.6723C18.5486 18.6723 18.6251 18.6794 18.702 18.6842V20.5312C18.6251 20.522 18.5495 20.5079 18.4704 20.5079C17.4137 20.5079 16.5574 21.3642 16.5574 22.4209C16.5574 23.4776 17.4137 24.3339 18.4704 24.3339C19.5271 24.3339 20.4603 23.5014 20.4603 22.4446C20.4603 22.4029 20.4787 13.8319 20.4787 13.8319H22.244C22.4102 15.4104 23.6845 16.6561 25.2774 16.7704V18.8231Z" fill="#F5F8FB"/>
</svg>
