<svg width="41" height="40" viewBox="0 0 41 40" fill="none" xmlns="http://www.w3.org/2000/svg">
<path d="M27.8106 14.1801C28.6677 13.6439 29.309 12.7996 29.6148 11.8049C28.8094 12.3049 27.9283 12.6572 27.0094 12.8464C25.7355 11.4362 23.717 11.093 22.082 12.0086C20.4469 12.9242 19.6 14.8719 20.0145 16.7633C16.7155 16.59 13.6419 14.9594 11.5586 12.2771C10.4714 14.2395 11.027 16.7481 12.8283 18.01C12.1769 17.9881 11.54 17.8035 10.9706 17.4717C10.9706 17.4897 10.9706 17.5077 10.9706 17.5257C10.971 19.5699 12.3478 21.3307 14.2625 21.7358C13.6583 21.9079 13.0245 21.9332 12.4095 21.8099C12.948 23.558 14.4877 24.7556 16.2426 24.7914C14.7892 25.9851 12.9942 26.6325 11.1465 26.6293C10.819 26.6298 10.4918 26.6101 10.1665 26.5703C12.0428 27.8319 14.2265 28.5016 16.4568 28.4992C19.5596 28.5215 22.5415 27.2415 24.7355 24.9455C26.9295 22.6494 28.1525 19.529 28.1309 16.2821C28.1309 16.096 28.1268 15.9109 28.1185 15.7268C28.9221 15.1191 29.6156 14.3663 30.1665 13.5037C29.4179 13.851 28.6238 14.0789 27.8106 14.1801Z" fill="#F5F8FB"/>
</svg>
