<svg width="40" height="40" viewBox="0 0 40 40" fill="none" xmlns="http://www.w3.org/2000/svg">
<path d="M31.2522 13.9219C31.0311 12.7535 29.9775 11.9027 28.7548 11.6371C26.9252 11.2656 23.539 11 19.8753 11C16.2138 11 12.7735 11.2656 10.9416 11.6371C9.72115 11.9027 8.66541 12.6996 8.44429 13.9219C8.221 15.25 7.99988 17.1094 7.99988 19.5C7.99988 21.8906 8.221 23.75 8.49848 25.0781C8.72177 26.2465 9.77534 27.0973 10.9958 27.3629C12.9382 27.7344 16.268 28 19.9317 28C23.5954 28 26.9252 27.7344 28.8676 27.3629C30.088 27.0973 31.1416 26.3004 31.3649 25.0781C31.586 23.75 31.8635 21.8367 31.9199 19.5C31.8071 17.1094 31.5297 15.25 31.2522 13.9219ZM16.8794 23.2188V15.7812L23.6496 19.5L16.8794 23.2188Z" fill="#F5F8FB"/>
</svg>
